<svg id="svg3168" xmlns="http://www.w3.org/2000/svg" viewBox="0 0 541.44 541.44"><title>icon-patreon</title><path d="M270.72,0h0C121.2,0,0,121.2,0,270.72V541.19H62.84V270.72c0-114.8,93.07-207.87,207.88-207.87s207.88,93.07,207.88,207.87c0,111.57-87.92,202.59-198.25,207.63-35.05-.29-64.94-6-78-14V375a124.3,124.3,0,1,0-56.28-104V541.19H259.38c3.76.16,7.54.25,11.34.25,149.52,0,270.72-121.2,270.72-270.72S420.23,0,270.72,0Zm0,478.59c-2.92,0-5.83-.1-8.72-.22h17.88C276.84,478.51,273.79,478.59,270.72,478.59Z" style="fill:#ff5900"/></svg>